<svg width="87" height="87" viewBox="0 0 87 87" fill="none" xmlns="http://www.w3.org/2000/svg">
<g clip-path="url(#clip0_108_52)">
<path d="M53.082 43.5001L85.6101 10.9706C86.5049 10.0751 86.9986 8.88047 87 7.60659C87 6.332 86.5063 5.13593 85.6101 4.24188L82.7596 1.3921C81.8635 0.494515 80.6688 0.00292969 79.3935 0.00292969C78.1203 0.00292969 76.9257 0.494515 76.0295 1.3921L43.5014 33.9195L10.9719 1.3921C10.0771 0.494515 8.88178 0.00292969 7.60719 0.00292969C6.33402 0.00292969 5.13866 0.494515 4.2439 1.3921L1.392 4.24188C-0.464 6.09788 -0.464 9.11671 1.392 10.9706L33.9208 43.5001L1.392 76.0282C0.496537 76.9251 0.00353658 78.1197 0.00353658 79.3936C0.00353658 80.6675 0.496537 81.8621 1.392 82.7583L4.24319 85.6081C5.13795 86.505 6.33402 86.9973 7.60649 86.9973C8.88107 86.9973 10.0764 86.505 10.9712 85.6081L43.5007 53.08L76.0288 85.6081C76.925 86.505 78.1196 86.9973 79.3928 86.9973H79.3942C80.6681 86.9973 81.8627 86.505 82.7589 85.6081L85.6094 82.7583C86.5042 81.8629 86.9979 80.6675 86.9979 79.3936C86.9979 78.1197 86.5042 76.9251 85.6094 76.0289L53.082 43.5001Z" fill="white"/>
</g>
<defs>
<clipPath id="clip0_108_52">
<rect width="87" height="87" fill="white"/>
</clipPath>
</defs>
</svg>
