<svg width="87" height="87" viewBox="0 0 87 87" fill="none" xmlns="http://www.w3.org/2000/svg">
<g clip-path="url(#clip0_107_46)">
<path d="M77.9376 87H9.06249C4.06363 87 0 82.9327 0 77.9376V9.06249C0 4.06725 4.06363 0 9.06249 0H77.9376C82.9364 0 87 4.06725 87 9.06249V77.9376C87 82.9327 82.9364 87 77.9376 87ZM9.06249 3.62499C6.06463 3.62499 3.62499 6.06463 3.62499 9.06249V77.9376C3.62499 80.9354 6.06463 83.3751 9.06249 83.3751H77.9376C80.9354 83.3751 83.3751 80.9354 83.3751 77.9376V9.06249C83.3751 6.06463 80.9354 3.62499 77.9376 3.62499H9.06249Z" fill="#E0B100"/>
<path d="M59.8119 29.0004H27.1869C26.1864 29.0004 25.3745 28.1883 25.3745 27.1878C25.3745 26.1873 26.1864 25.3752 27.1869 25.3752H59.8119C60.8124 25.3752 61.6244 26.1873 61.6244 27.1878C61.6244 28.1883 60.8124 29.0004 59.8119 29.0004Z" fill="#FFA500"/>
<path d="M59.8119 45.3129H27.1869C26.1864 45.3129 25.3745 44.5008 25.3745 43.5003C25.3745 42.4998 26.1864 41.6877 27.1869 41.6877H59.8119C60.8124 41.6877 61.6244 42.4998 61.6244 43.5003C61.6244 44.5008 60.8124 45.3129 59.8119 45.3129Z" fill="#FFA500"/>
<path d="M59.8119 61.6254H27.1869C26.1864 61.6254 25.3745 60.8133 25.3745 59.8128C25.3745 58.8123 26.1864 58.0002 27.1869 58.0002H59.8119C60.8124 58.0002 61.6244 58.8123 61.6244 59.8128C61.6244 60.8133 60.8124 61.6254 59.8119 61.6254Z" fill="#FFA500"/>
</g>
<defs>
<clipPath id="clip0_107_46">
<rect width="87" height="87" fill="white"/>
</clipPath>
</defs>
</svg>
