<svg width="177" height="40" viewBox="0 0 177 40" fill="none" xmlns="http://www.w3.org/2000/svg">
<g clip-path="url(#clip0_15_352)">
<path fill-rule="evenodd" clip-rule="evenodd" d="M13.7146 0C11.4582 0 9.2943 0.896337 7.69881 2.49183L0 10.1906V13.7146C0 16.2043 1.06944 18.4442 2.77401 20C1.06944 21.5558 0 23.7957 0 26.2854V29.8094L7.69881 37.5082C9.2943 39.1037 11.4582 40 13.7146 40C16.2043 40 18.4442 38.9306 20 37.226C21.5558 38.9306 23.7957 40 26.2854 40C28.5418 40 30.7057 39.1037 32.3012 37.5082L40 29.8094V26.2854C40 23.7957 38.9306 21.5558 37.226 20C38.9306 18.4442 40 16.2043 40 13.7146V10.1906L32.3012 2.49183C30.7057 0.896337 28.5418 0 26.2854 0C23.7957 0 21.5558 1.06944 20 2.77401C18.4442 1.06944 16.2043 0 13.7146 0ZM25.7588 20C25.6629 19.9125 25.5688 19.8226 25.4766 19.7304L20 14.2538L14.5234 19.7304C14.4312 19.8226 14.3371 19.9125 14.2412 20C14.3371 20.0875 14.4312 20.1774 14.5234 20.2696L20 25.7462L25.4766 20.2696C25.5688 20.1774 25.6629 20.0875 25.7588 20ZM22.2222 29.8094V31.4924C22.2222 33.7364 24.0414 35.5556 26.2854 35.5556C27.363 35.5556 28.3965 35.1275 29.1585 34.3655L35.5556 27.9684V26.2854C35.5556 24.0414 33.7364 22.2222 31.4924 22.2222C30.4148 22.2222 29.3813 22.6503 28.6193 23.4123L22.2222 29.8094ZM17.7778 29.8094L11.3807 23.4123C10.6187 22.6503 9.58524 22.2222 8.50762 22.2222C6.26359 22.2222 4.44444 24.0414 4.44444 26.2854V27.9684L10.8415 34.3655C11.6035 35.1275 12.637 35.5556 13.7146 35.5556C15.9586 35.5556 17.7778 33.7364 17.7778 31.4924V29.8094ZM17.7778 8.50762V10.1906L11.3807 16.5877C10.6187 17.3497 9.58524 17.7778 8.50762 17.7778C6.26359 17.7778 4.44444 15.9586 4.44444 13.7146V12.0316L10.8415 5.63452C11.6035 4.87253 12.637 4.44445 13.7146 4.44445C15.9586 4.44445 17.7778 6.26359 17.7778 8.50762ZM28.6193 16.5877L22.2222 10.1906V8.50762C22.2222 6.26359 24.0414 4.44445 26.2854 4.44445C27.363 4.44445 28.3965 4.87253 29.1585 5.63452L35.5556 12.0316V13.7146C35.5556 15.9586 33.7364 17.7778 31.4924 17.7778C30.4148 17.7778 29.3813 17.3497 28.6193 16.5877Z" fill="#E0B100"/>
</g>
<path d="M49.7216 29V11.5455H52.8835V26.3494H60.571V29H49.7216ZM68.9744 29.2557C67.6619 29.2557 66.5284 28.983 65.5739 28.4375C64.625 27.8864 63.8949 27.108 63.3835 26.1023C62.8722 25.0909 62.6165 23.9006 62.6165 22.5312C62.6165 21.1847 62.8722 20.0028 63.3835 18.9858C63.9006 17.9631 64.6222 17.1676 65.5483 16.5994C66.4744 16.0256 67.5625 15.7386 68.8125 15.7386C69.6193 15.7386 70.3807 15.8693 71.0966 16.1307C71.8182 16.3864 72.4545 16.7841 73.0057 17.3239C73.5625 17.8636 74 18.5511 74.3182 19.3864C74.6364 20.2159 74.7955 21.2045 74.7955 22.3523V23.2983H64.0653V21.2188H71.8381C71.8324 20.6278 71.7045 20.1023 71.4545 19.642C71.2045 19.1761 70.8551 18.8097 70.4062 18.5426C69.9631 18.2756 69.446 18.142 68.8551 18.142C68.2244 18.142 67.6705 18.2955 67.1932 18.6023C66.7159 18.9034 66.3438 19.3011 66.0767 19.7955C65.8153 20.2841 65.6818 20.821 65.6761 21.4062V23.2216C65.6761 23.983 65.8153 24.6364 66.0938 25.1818C66.3722 25.7216 66.7614 26.1364 67.2614 26.4261C67.7614 26.7102 68.3466 26.8523 69.017 26.8523C69.4659 26.8523 69.8722 26.7898 70.2358 26.6648C70.5994 26.5341 70.9148 26.3438 71.1818 26.0938C71.4489 25.8438 71.6506 25.5341 71.7869 25.1648L74.6676 25.4886C74.4858 26.25 74.1392 26.9148 73.6278 27.483C73.1222 28.0455 72.4744 28.483 71.6847 28.7955C70.8949 29.1023 69.9915 29.2557 68.9744 29.2557ZM83.9425 15.9091V18.2955H76.4169V15.9091H83.9425ZM78.2749 12.7727H81.3601V25.0625C81.3601 25.4773 81.4226 25.7955 81.5476 26.017C81.6783 26.233 81.8487 26.3807 82.0589 26.4602C82.2692 26.5398 82.5021 26.5795 82.7578 26.5795C82.951 26.5795 83.1271 26.5653 83.2862 26.5369C83.451 26.5085 83.576 26.483 83.6612 26.4602L84.1811 28.8722C84.0163 28.929 83.7805 28.9915 83.4737 29.0597C83.1726 29.1278 82.8033 29.1676 82.3658 29.179C81.593 29.2017 80.897 29.0852 80.2777 28.8295C79.6584 28.5682 79.1669 28.1648 78.8033 27.6193C78.4453 27.0739 78.2692 26.392 78.2749 25.5739V12.7727ZM89.7486 11.5455V13.2841C89.7486 13.7841 89.652 14.304 89.4588 14.8438C89.2713 15.3778 89.0128 15.8892 88.6832 16.3778C88.3537 16.8608 87.9787 17.2756 87.5582 17.6222L86.1264 16.6932C86.4389 16.2216 86.7116 15.7131 86.9446 15.1676C87.1776 14.6165 87.294 13.9943 87.294 13.3011V11.5455H89.7486ZM100.901 19.3693L98.0881 19.6761C98.0085 19.392 97.8693 19.125 97.6705 18.875C97.4773 18.625 97.2159 18.4233 96.8864 18.2699C96.5568 18.1165 96.1534 18.0398 95.6761 18.0398C95.0341 18.0398 94.4943 18.179 94.0568 18.4574C93.625 18.7358 93.4119 19.0966 93.4176 19.5398C93.4119 19.9205 93.5511 20.2301 93.8352 20.4688C94.125 20.7074 94.6023 20.9034 95.267 21.0568L97.5 21.5341C98.7386 21.8011 99.6591 22.2244 100.261 22.804C100.869 23.3835 101.176 24.142 101.182 25.0795C101.176 25.9034 100.935 26.6307 100.457 27.2614C99.9858 27.8864 99.3295 28.375 98.4886 28.7273C97.6477 29.0795 96.6818 29.2557 95.5909 29.2557C93.9886 29.2557 92.6989 28.9205 91.7216 28.25C90.7443 27.5739 90.1619 26.6335 89.9744 25.429L92.983 25.1392C93.1193 25.7301 93.4091 26.1761 93.8523 26.4773C94.2955 26.7784 94.8722 26.929 95.5824 26.929C96.3153 26.929 96.9034 26.7784 97.3466 26.4773C97.7955 26.1761 98.0199 25.804 98.0199 25.3608C98.0199 24.9858 97.875 24.6761 97.5852 24.4318C97.3011 24.1875 96.858 24 96.2557 23.8693L94.0227 23.4006C92.767 23.1392 91.8381 22.6989 91.2358 22.0795C90.6335 21.4545 90.3352 20.6648 90.3409 19.7102C90.3352 18.9034 90.554 18.2045 90.9972 17.6136C91.446 17.017 92.0682 16.5568 92.8636 16.233C93.6648 15.9034 94.5881 15.7386 95.6335 15.7386C97.1676 15.7386 98.375 16.0653 99.2557 16.7188C100.142 17.3722 100.69 18.2557 100.901 19.3693ZM103.862 29V11.5455H110.544C111.805 11.5455 112.854 11.7443 113.689 12.142C114.53 12.5341 115.158 13.071 115.572 13.7528C115.993 14.4347 116.203 15.2074 116.203 16.071C116.203 16.7812 116.067 17.3892 115.794 17.8949C115.521 18.3949 115.155 18.8011 114.695 19.1136C114.234 19.4261 113.72 19.6506 113.152 19.7869V19.9574C113.771 19.9915 114.365 20.1818 114.933 20.5284C115.507 20.8693 115.976 21.3523 116.339 21.9773C116.703 22.6023 116.885 23.358 116.885 24.2443C116.885 25.1477 116.666 25.9602 116.229 26.6818C115.791 27.3977 115.132 27.9631 114.251 28.3778C113.371 28.7926 112.263 29 110.928 29H103.862ZM107.024 26.358H110.425C111.572 26.358 112.399 26.1392 112.905 25.7017C113.416 25.2585 113.672 24.6903 113.672 23.9972C113.672 23.4801 113.544 23.0142 113.288 22.5994C113.033 22.179 112.669 21.8494 112.197 21.6108C111.726 21.3665 111.163 21.2443 110.51 21.2443H107.024V26.358ZM107.024 18.9688H110.152C110.697 18.9688 111.189 18.8693 111.626 18.6705C112.064 18.4659 112.408 18.179 112.658 17.8097C112.913 17.4347 113.041 16.9915 113.041 16.4801C113.041 15.804 112.803 15.2472 112.325 14.8097C111.854 14.3722 111.152 14.1534 110.22 14.1534H107.024V18.9688ZM125.21 29.2557C123.931 29.2557 122.823 28.9744 121.886 28.4119C120.948 27.8494 120.221 27.0625 119.704 26.0511C119.192 25.0398 118.937 23.858 118.937 22.5057C118.937 21.1534 119.192 19.9687 119.704 18.9517C120.221 17.9347 120.948 17.1449 121.886 16.5824C122.823 16.0199 123.931 15.7386 125.21 15.7386C126.488 15.7386 127.596 16.0199 128.533 16.5824C129.471 17.1449 130.195 17.9347 130.707 18.9517C131.224 19.9687 131.482 21.1534 131.482 22.5057C131.482 23.858 131.224 25.0398 130.707 26.0511C130.195 27.0625 129.471 27.8494 128.533 28.4119C127.596 28.9744 126.488 29.2557 125.21 29.2557ZM125.227 26.7841C125.92 26.7841 126.499 26.5937 126.965 26.2131C127.431 25.8267 127.778 25.3097 128.005 24.6619C128.238 24.0142 128.354 23.2926 128.354 22.4972C128.354 21.696 128.238 20.9716 128.005 20.3239C127.778 19.6705 127.431 19.1506 126.965 18.7642C126.499 18.3778 125.92 18.1847 125.227 18.1847C124.516 18.1847 123.925 18.3778 123.454 18.7642C122.988 19.1506 122.638 19.6705 122.406 20.3239C122.178 20.9716 122.065 21.696 122.065 22.4972C122.065 23.2926 122.178 24.0142 122.406 24.6619C122.638 25.3097 122.988 25.8267 123.454 26.2131C123.925 26.5937 124.516 26.7841 125.227 26.7841ZM139.811 29.2557C138.533 29.2557 137.425 28.9744 136.487 28.4119C135.55 27.8494 134.822 27.0625 134.305 26.0511C133.794 25.0398 133.538 23.858 133.538 22.5057C133.538 21.1534 133.794 19.9687 134.305 18.9517C134.822 17.9347 135.55 17.1449 136.487 16.5824C137.425 16.0199 138.533 15.7386 139.811 15.7386C141.089 15.7386 142.197 16.0199 143.135 16.5824C144.072 17.1449 144.797 17.9347 145.308 18.9517C145.825 19.9687 146.084 21.1534 146.084 22.5057C146.084 23.858 145.825 25.0398 145.308 26.0511C144.797 27.0625 144.072 27.8494 143.135 28.4119C142.197 28.9744 141.089 29.2557 139.811 29.2557ZM139.828 26.7841C140.521 26.7841 141.101 26.5937 141.567 26.2131C142.033 25.8267 142.379 25.3097 142.607 24.6619C142.839 24.0142 142.956 23.2926 142.956 22.4972C142.956 21.696 142.839 20.9716 142.607 20.3239C142.379 19.6705 142.033 19.1506 141.567 18.7642C141.101 18.3778 140.521 18.1847 139.828 18.1847C139.118 18.1847 138.527 18.3778 138.055 18.7642C137.589 19.1506 137.24 19.6705 137.007 20.3239C136.78 20.9716 136.666 21.696 136.666 22.4972C136.666 23.2926 136.78 24.0142 137.007 24.6619C137.24 25.3097 137.589 25.8267 138.055 26.2131C138.527 26.5937 139.118 26.7841 139.828 26.7841ZM151.515 24.892L151.506 21.1676H152.001L156.705 15.9091H160.31L154.523 22.3523H153.884L151.515 24.892ZM148.702 29V11.5455H151.788V29H148.702ZM156.918 29L152.657 23.0426L154.737 20.8693L160.609 29H156.918ZM165.665 11.5455V29H162.503V11.5455H165.665ZM175.489 15.9091V18.2955H167.964V15.9091H175.489ZM169.822 12.7727H172.907V25.0625C172.907 25.4773 172.969 25.7955 173.094 26.017C173.225 26.233 173.396 26.3807 173.606 26.4602C173.816 26.5398 174.049 26.5795 174.305 26.5795C174.498 26.5795 174.674 26.5653 174.833 26.5369C174.998 26.5085 175.123 26.483 175.208 26.4602L175.728 28.8722C175.563 28.929 175.327 28.9915 175.021 29.0597C174.719 29.1278 174.35 29.1676 173.913 29.179C173.14 29.2017 172.444 29.0852 171.825 28.8295C171.205 28.5682 170.714 28.1648 170.35 27.6193C169.992 27.0739 169.816 26.392 169.822 25.5739V12.7727Z" fill="#E0B100"/>
<defs>
<clipPath id="clip0_15_352">
<rect width="40" height="40" fill="white"/>
</clipPath>
</defs>
</svg>
