<svg width="264" height="72" viewBox="0 0 264 72" fill="none" xmlns="http://www.w3.org/2000/svg">
<path fill-rule="evenodd" clip-rule="evenodd" d="M27 8C23.8156 8 21.2517 8.76631 19 11L8 22V27C8 30.4856 9.59439 33.8219 12 36C9.59439 38.1781 8 41.5144 8 45V50L19 61C21.2517 63.2337 23.8156 64 27 64C30.5136 64 33.8043 62.3864 36 60C38.1957 62.3864 41.4864 64 45 64C48.1844 64 51.7483 63.2337 54 61L64 50V45C64 41.5144 63.4057 38.1781 61 36C63.4057 33.8219 64 30.4856 64 27V22L54 11C51.7483 8.76631 48.1844 8 45 8C41.4864 8 38.1957 9.6136 36 12C33.8043 9.6136 30.5136 8 27 8ZM44 36C43.8647 35.8775 44.1301 36.1291 44 36L36 28L28 36C27.8699 36.1291 28.1353 35.8775 28 36C27.8699 35.8709 28.1353 36.1225 28 36L36 44L44 36C44.1301 35.8709 43.8647 36.1225 44 36ZM39 50V52C39 55.1416 41.8331 58 45 58C46.5208 58 47.9246 57.0668 49 56L58 47V45C58 41.8584 55.1669 39 52 39C50.4792 39 49.0754 39.9332 48 41L39 50ZM33 50L24 41C22.9246 39.9332 21.5208 39 20 39C16.8331 39 14 41.8584 14 45V47L23 56C24.0754 57.0668 25.4792 58 27 58C30.1669 58 33 55.1416 33 52V50ZM33 20V22L24 31C22.9246 32.0668 21.5208 33 20 33C16.8331 33 14 30.1416 14 27V25L23 16C24.0754 14.9332 25.4792 14 27 14C30.1669 14 33 16.8584 33 20ZM48 31L39 22V20C39 16.8584 41.8331 14 45 14C46.5208 14 47.9246 14.9332 49 16L58 25V27C58 30.1416 55.1669 33 52 33C50.4792 33 49.0754 32.0668 48 31Z" fill="#E0B100"/>
<path d="M78 49V24H83V45H93V49H78Z" fill="#E0B100"/>
<path d="M105 49C103.148 49 102.347 48.7636 101 48C99.6609 47.2284 97.7217 46.408 97 45C96.2783 43.5841 96 41.917 96 40C96 38.1148 96.2783 36.4239 97 35C97.7297 33.5682 99.693 31.7955 101 31C102.307 30.1966 103.236 30 105 30C106.139 30 106.99 30.6341 108 31C109.018 31.358 110.222 31.2443 111 32C111.786 32.7557 112.551 33.8307 113 35C113.449 36.1614 114 37.3932 114 39V41H98V38H109C108.992 37.1727 109.353 35.6443 109 35C108.647 34.3477 107.633 34.3739 107 34C106.375 33.6261 105.834 33 105 33C104.11 33 103.674 33.5705 103 34C102.326 34.4216 101.377 35.308 101 36C100.631 36.6841 101.008 37.1807 101 38V41C101 42.0659 100.607 42.2364 101 43C101.393 43.7557 102.294 44.5943 103 45C103.706 45.3977 104.054 46 105 46C105.633 46 106.487 45.175 107 45C107.513 44.817 107.623 45.35 108 45C108.377 44.65 108.808 43.517 109 43L113 44C112.743 45.0659 112.722 45.2045 112 46C111.286 46.7875 110.115 47.5625 109 48C107.885 48.4295 106.435 49 105 49Z" fill="#E0B100"/>
<path d="M126 30V34H116V30H126ZM118 26H123V43C123 43.5807 122.824 43.6898 123 44C123.184 44.3023 123.703 44.8886 124 45C124.297 45.1114 124.639 45 125 45C125.273 45 125.775 45.0398 126 45C125.88 45.0318 126.233 44.9602 126 45L127 48C126.767 48.0795 126.433 48.9045 126 49C125.575 49.0955 124.617 48.9841 124 49C122.909 49.0318 121.874 48.358 121 48C120.126 47.6341 119.513 47.7636 119 47C118.495 46.2364 117.992 45.1455 118 44V26Z" fill="#E0B100"/>
<path d="M135 24V27C135 27.7 134.273 28.2443 134 29C133.735 29.7477 133.465 30.3159 133 31C132.535 31.6761 132.593 32.5148 132 33L130 31C130.441 30.3398 130.671 29.7636 131 29C131.329 28.2284 131 27.9705 131 27V24H135Z" fill="#E0B100"/>
<path d="M150 35L146 36C145.888 35.6023 146.281 34.35 146 34C145.727 33.65 145.465 34.2148 145 34C144.535 33.7852 143.674 33 143 33C142.094 33 141.617 33.6102 141 34C140.391 34.3898 139.992 34.3795 140 35C139.992 35.533 139.599 36.6659 140 37C140.409 37.3341 141.062 36.7852 142 37L146 38C147.748 38.3739 148.15 39.1886 149 40C149.858 40.8114 150.992 41.6875 151 43C150.992 44.1534 150.674 45.117 150 46C149.334 46.875 148.187 47.5068 147 48C145.813 48.4932 144.54 49 143 49C140.739 49 138.379 48.9386 137 48C135.621 47.0534 135.265 45.6864 135 44L139 43C139.192 43.8273 139.375 44.5784 140 45C140.625 45.4216 141.998 46 143 46C144.034 46 144.375 45.4216 145 45C145.633 44.5784 146 44.6205 146 44C146 43.475 146.409 42.342 146 42C145.599 41.658 144.85 41.183 144 41H141C139.228 40.6341 137.85 39.867 137 39C136.15 38.125 134.992 37.3364 135 36C134.992 34.8705 135.375 33.8273 136 33C136.633 32.1648 137.877 31.4534 139 31C140.131 30.5386 141.525 30 143 30C145.165 30 146.757 30.0852 148 31C149.251 31.9148 149.703 33.4409 150 35Z" fill="#E0B100"/>
<path d="M155 49V24H164C165.78 24 166.821 24.4432 168 25C169.187 25.5489 170.415 26.0455 171 27C171.593 27.9545 172 28.7909 172 30C172 30.9943 171.385 32.292 171 33C170.615 33.7 170.65 34.5625 170 35C169.35 35.4375 168.802 35.8091 168 36C168.874 36.0477 169.198 36.5148 170 37C170.81 37.4773 171.487 38.125 172 39C172.513 39.875 173 40.7591 173 42C173 43.2648 172.617 43.9898 172 45C171.383 46.0023 170.243 47.4193 169 48C167.757 48.5807 166.884 49 165 49H155ZM159 45H164C165.62 45 166.286 44.6125 167 44C167.722 43.3795 168 42.9705 168 42C168 41.2761 168.361 40.5807 168 40C167.639 39.4114 166.666 38.3341 166 38C165.334 37.658 164.922 38 164 38H159V45ZM159 35H163C163.77 35 165.383 34.2784 166 34C166.617 33.7136 166.647 33.517 167 33C167.361 32.475 168 31.7159 168 31C168 30.0534 167.674 29.6125 167 29C166.334 28.3875 165.315 28 164 28H159V35Z" fill="#E0B100"/>
<path d="M185 49C183.196 49 181.323 48.7875 180 48C178.677 47.2125 177.73 45.4159 177 44C176.278 42.5841 176 41.8932 176 40C176 38.1068 176.278 36.4239 177 35C177.73 33.5761 178.677 31.7875 180 31C181.323 30.2125 183.196 30 185 30C186.804 30 187.677 30.2125 189 31C190.323 31.7875 191.278 33.5761 192 35C192.73 36.4239 194 38.1068 194 40C194 41.8932 192.73 42.5841 192 44C191.278 45.4159 190.323 47.2125 189 48C187.677 48.7875 186.804 49 185 49ZM185 45C185.978 45 186.342 45.533 187 45C187.658 44.4591 188.679 43.9068 189 43C189.329 42.0932 189 40.1136 189 39C189 37.8784 189.329 36.9068 189 36C188.679 35.0852 187.658 34.5409 187 34C186.342 33.4591 185.978 33 185 33C183.998 33 182.666 33.4591 182 34C181.342 34.5409 181.329 35.0852 181 36C180.679 36.9068 180 37.8784 180 39C180 40.1136 180.679 42.0932 181 43C181.329 43.9068 181.342 44.4591 182 45C182.666 45.533 183.998 45 185 45Z" fill="#E0B100"/>
<path d="M205 49C203.196 49 202.323 48.7875 201 48C199.677 47.2125 198.73 45.4159 198 44C197.278 42.5841 196 41.8932 196 40C196 38.1068 197.278 36.4239 198 35C198.73 33.5761 199.677 31.7875 201 31C202.323 30.2125 203.196 30 205 30C206.804 30 208.677 30.2125 210 31C211.323 31.7875 212.278 33.5761 213 35C213.73 36.4239 214 38.1068 214 40C214 41.8932 213.73 42.5841 213 44C212.278 45.4159 211.323 47.2125 210 48C208.677 48.7875 206.804 49 205 49ZM205 45C205.978 45 207.342 45.533 208 45C208.658 44.4591 208.679 43.9068 209 43C209.329 42.0932 210 40.1136 210 39C210 37.8784 209.329 36.9068 209 36C208.679 35.0852 208.658 34.5409 208 34C207.342 33.4591 205.978 33 205 33C203.998 33 203.666 33.4591 203 34C202.342 34.5409 201.329 35.0852 201 36C200.679 36.9068 201 37.8784 201 39C201 40.1136 200.679 42.0932 201 43C201.329 43.9068 202.342 44.4591 203 45C203.666 45.533 203.998 45 205 45Z" fill="#E0B100"/>
<path d="M222 43V38H223L229 30H234L226 39H225L222 43ZM218 49V24H222V49H218ZM229 49L223 40L226 37L235 49H229Z" fill="#E0B100"/>
<path d="M242 24V49H237V24H242Z" fill="#E0B100"/>
<path d="M256 30V34H245V30H256ZM248 26H252V43C252 43.5807 251.824 43.6898 252 44C252.184 44.3023 252.703 44.8886 253 45C253.297 45.1114 253.639 45 254 45C254.273 45 254.775 45.0398 255 45C254.88 45.0318 255.233 44.9602 255 45L256 48C255.767 48.0795 255.433 48.9045 255 49C254.575 49.0955 253.617 48.9841 253 49C251.909 49.0318 250.874 48.358 250 48C249.126 47.6341 248.513 47.7636 248 47C247.495 46.2364 247.992 45.1455 248 44V26Z" fill="#E0B100"/>
</svg>
